<svg xmlns="http://www.w3.org/2000/svg" xmlns:xlink="http://www.w3.org/1999/xlink" width="1366" zoomAndPan="magnify" viewBox="0 0 1024.5 576" height="768" preserveAspectRatio="xMidYMid meet" version="1.0"><defs><clipPath id="6605fa355e"><path d="M 123.445312 154.203125 L 225.875 154.203125 L 225.875 263 L 123.445312 263 Z M 123.445312 154.203125 " clip-rule="nonzero"/></clipPath><clipPath id="76194c35d1"><path d="M 176.570312 256.582031 L 169.289062 262.847656 L 123.757812 216.492188 L 186.039062 154.210938 L 225.769531 193.050781 L 212.167969 192.871094 L 185.863281 166.027344 L 136.113281 216.3125 Z M 176.570312 256.582031 " clip-rule="nonzero"/></clipPath><clipPath id="d77cac0132"><path d="M 0.539062 0.203125 L 102.875 0.203125 L 102.875 109 L 0.539062 109 Z M 0.539062 0.203125 " clip-rule="nonzero"/></clipPath><clipPath id="2868713199"><path d="M 53.570312 102.582031 L 46.289062 108.847656 L 0.757812 62.492188 L 63.039062 0.210938 L 102.769531 39.050781 L 89.167969 38.871094 L 62.863281 12.027344 L 13.113281 62.3125 Z M 53.570312 102.582031 " clip-rule="nonzero"/></clipPath><clipPath id="55b2d95d9d"><rect x="0" width="103" y="0" height="109"/></clipPath><clipPath id="2fbc8106ce"><path d="M 183.257812 192.332031 L 272.976562 192.332031 L 272.976562 253.644531 L 183.257812 253.644531 Z M 183.257812 192.332031 " clip-rule="nonzero"/></clipPath><clipPath id="4ef5e2f97a"><path d="M 183.503906 253.523438 L 183.503906 192.839844 L 272.449219 192.839844 L 272.449219 233.109375 L 263.855469 224.519531 L 264.035156 200.898438 L 191.203125 200.898438 L 190.851562 253.261719 C 190.851562 253.269531 190.445312 253.203125 190.019531 253.171875 C 189.566406 253.140625 188.9375 253.105469 188.863281 253.105469 C 188.632812 253.089844 188.546875 253.089844 188.316406 253.089844 C 188.128906 253.089844 187.933594 253.089844 187.738281 253.089844 C 187.558594 253.097656 187.453125 253.097656 187.273438 253.105469 C 186.71875 253.132812 186.097656 253.171875 185.550781 253.222656 C 185.371094 253.238281 185.199219 253.269531 185.019531 253.292969 C 184.777344 253.320312 184.539062 253.367188 184.289062 253.394531 C 184.089844 253.417969 183.773438 253.492188 183.503906 253.53125 " clip-rule="nonzero"/></clipPath><clipPath id="7688e70729"><path d="M 0.269531 0.765625 L 89.507812 0.765625 L 89.507812 61.644531 L 0.269531 61.644531 Z M 0.269531 0.765625 " clip-rule="nonzero"/></clipPath><clipPath id="d684196bbb"><path d="M 0.503906 61.523438 L 0.503906 0.839844 L 89.449219 0.839844 L 89.449219 41.109375 L 80.855469 32.519531 L 81.035156 8.898438 L 8.203125 8.898438 L 7.851562 61.261719 C 7.851562 61.269531 7.445312 61.203125 7.019531 61.171875 C 6.566406 61.140625 5.9375 61.105469 5.863281 61.105469 C 5.632812 61.089844 5.546875 61.089844 5.316406 61.089844 C 5.128906 61.089844 4.933594 61.089844 4.738281 61.089844 C 4.558594 61.097656 4.453125 61.097656 4.273438 61.105469 C 3.71875 61.132812 3.097656 61.171875 2.550781 61.222656 C 2.371094 61.238281 2.199219 61.269531 2.019531 61.292969 C 1.777344 61.320312 1.539062 61.367188 1.289062 61.394531 C 1.089844 61.417969 0.773438 61.492188 0.503906 61.53125 " clip-rule="nonzero"/></clipPath><clipPath id="17ff367d42"><rect x="0" width="90" y="0" height="62"/></clipPath><clipPath id="21da57cea0"><path d="M 197.464844 206.539062 L 311.859375 206.539062 L 311.859375 308.972656 L 197.464844 308.972656 Z M 197.464844 206.539062 " clip-rule="nonzero"/></clipPath><clipPath id="9607c0e4c1"><path d="M 197.613281 255.269531 L 245.992188 206.648438 L 311.847656 272.511719 L 275.65625 308.480469 L 275.65625 295.234375 L 299.320312 272.324219 L 245.632812 218.816406 L 204.652344 260.324219 Z M 197.613281 255.269531 " clip-rule="nonzero"/></clipPath><clipPath id="09ca0c77c0"><path d="M 0.464844 0.539062 L 114.859375 0.539062 L 114.859375 102.628906 L 0.464844 102.628906 Z M 0.464844 0.539062 " clip-rule="nonzero"/></clipPath><clipPath id="099ad1856a"><path d="M 0.613281 49.269531 L 48.992188 0.648438 L 114.847656 66.511719 L 78.65625 102.480469 L 78.65625 89.234375 L 102.320312 66.324219 L 48.632812 12.816406 L 7.652344 54.324219 Z M 0.613281 49.269531 " clip-rule="nonzero"/></clipPath><clipPath id="23d7f5f90f"><rect x="0" width="115" y="0" height="103"/></clipPath><clipPath id="0f7a104cd8"><path d="M 209.425781 273.082031 L 275.96875 273.082031 L 275.96875 365 L 209.425781 365 Z M 209.425781 273.082031 " clip-rule="nonzero"/></clipPath><clipPath id="d96fae4735"><path d="M 209.972656 273.132812 L 275.648438 273.132812 L 275.648438 364.761719 L 217.671875 364.761719 L 226.621094 356.539062 L 267.066406 356.890625 L 266.886719 280.652344 L 209.972656 280.832031 Z M 209.972656 273.132812 " clip-rule="nonzero"/></clipPath><clipPath id="5520c7608b"><path d="M 0.898438 0.128906 L 66.867188 0.128906 L 66.867188 91.761719 L 0.898438 91.761719 Z M 0.898438 0.128906 " clip-rule="nonzero"/></clipPath><clipPath id="fbf80373a8"><path d="M 0.972656 0.132812 L 66.648438 0.132812 L 66.648438 91.761719 L 8.671875 91.761719 L 17.621094 83.539062 L 58.066406 83.890625 L 57.886719 7.652344 L 0.972656 7.832031 Z M 0.972656 0.132812 " clip-rule="nonzero"/></clipPath><clipPath id="2de6c1236a"><rect x="0" width="67" y="0" height="92"/></clipPath><clipPath id="34f6ac1e0d"><path d="M 151.855469 288.035156 L 251.296875 288.035156 L 251.296875 397.945312 L 151.855469 397.945312 Z M 151.855469 288.035156 " clip-rule="nonzero"/></clipPath><clipPath id="5a1bdd6acb"><path d="M 207.605469 288.210938 L 251.242188 332.59375 L 185.59375 397.378906 L 151.953125 364.3125 L 164.65625 364.445312 L 186.179688 385.96875 L 238.75 332.234375 L 201.601562 295.007812 Z M 207.605469 288.210938 " clip-rule="nonzero"/></clipPath><clipPath id="86acaa310a"><path d="M 0.855469 0.0351562 L 100.296875 0.0351562 L 100.296875 109.386719 L 0.855469 109.386719 Z M 0.855469 0.0351562 " clip-rule="nonzero"/></clipPath><clipPath id="c6ecf90dfe"><path d="M 56.605469 0.210938 L 100.242188 44.59375 L 34.59375 109.378906 L 0.953125 76.3125 L 13.65625 76.445312 L 35.179688 97.96875 L 87.75 44.234375 L 50.601562 7.007812 Z M 56.605469 0.210938 " clip-rule="nonzero"/></clipPath><clipPath id="479ea77771"><rect x="0" width="101" y="0" height="110"/></clipPath><clipPath id="7783e32a7b"><path d="M 99.519531 299.25 L 191.480469 299.25 L 191.480469 365 L 99.519531 365 Z M 99.519531 299.25 " clip-rule="nonzero"/></clipPath><clipPath id="f78b277be9"><path d="M 191.40625 299.28125 L 191.40625 364.964844 L 99.777344 363.449219 L 99.777344 310.535156 L 108.367188 318.945312 L 108.007812 356.554688 L 184.425781 356.375 L 183.535156 299.28125 Z M 191.40625 299.28125 " clip-rule="nonzero"/></clipPath><clipPath id="9a641c5703"><path d="M 0.550781 0.273438 L 92.425781 0.273438 L 92.425781 66 L 0.550781 66 Z M 0.550781 0.273438 " clip-rule="nonzero"/></clipPath><clipPath id="679ab1a476"><path d="M 92.40625 0.28125 L 92.40625 65.964844 L 0.777344 64.449219 L 0.777344 11.535156 L 9.367188 19.945312 L 9.007812 57.554688 L 85.425781 57.375 L 84.535156 0.28125 Z M 92.40625 0.28125 " clip-rule="nonzero"/></clipPath><clipPath id="bfd65d490c"><rect x="0" width="93" y="0" height="66"/></clipPath><clipPath id="a33cc2aa47"><path d="M 64.378906 241.679688 L 172.789062 241.679688 L 172.789062 338.878906 L 64.378906 338.878906 Z M 64.378906 241.679688 " clip-rule="nonzero"/></clipPath><clipPath id="c7a6c03a60"><path d="M 172.304688 292.609375 L 126.667969 338.660156 L 64.386719 274.949219 L 99.28125 241.835938 L 99.101562 254.421875 L 76.554688 276.019531 L 127.207031 326.671875 L 166.914062 286.050781 Z M 172.304688 292.609375 " clip-rule="nonzero"/></clipPath><clipPath id="2fafc98234"><path d="M 0.378906 0.703125 L 108.476562 0.703125 L 108.476562 97.855469 L 0.378906 97.855469 Z M 0.378906 0.703125 " clip-rule="nonzero"/></clipPath><clipPath id="04fd77741f"><path d="M 108.304688 51.609375 L 62.667969 97.660156 L 0.386719 33.949219 L 35.28125 0.835938 L 35.101562 13.421875 L 12.554688 35.019531 L 63.207031 85.671875 L 102.914062 45.050781 Z M 108.304688 51.609375 " clip-rule="nonzero"/></clipPath><clipPath id="bc283ce224"><rect x="0" width="109" y="0" height="98"/></clipPath><clipPath id="4ce91658e5"><path d="M 98.023438 192.332031 L 165.3125 192.332031 L 165.3125 281 L 98.023438 281 Z M 98.023438 192.332031 " clip-rule="nonzero"/></clipPath><clipPath id="0462912eaf"><path d="M 165.207031 280.726562 L 98.523438 280.742188 L 98.523438 192.871094 L 147.378906 192.871094 L 138.96875 201.28125 L 106.578125 201.101562 L 106.9375 273.222656 L 165.207031 273.207031 Z M 165.207031 280.726562 " clip-rule="nonzero"/></clipPath><clipPath id="6ac249698e"><path d="M 0.351562 0.765625 L 67.28125 0.765625 L 67.28125 88.804688 L 0.351562 88.804688 Z M 0.351562 0.765625 " clip-rule="nonzero"/></clipPath><clipPath id="b51ea34821"><path d="M 67.207031 88.726562 L 0.523438 88.742188 L 0.523438 0.871094 L 49.378906 0.871094 L 40.96875 9.28125 L 8.578125 9.101562 L 8.9375 81.222656 L 67.207031 81.207031 Z M 67.207031 88.726562 " clip-rule="nonzero"/></clipPath><clipPath id="90d13d1ecc"><rect x="0" width="68" y="0" height="89"/></clipPath><clipPath id="648a13eb3e"><path d="M 163.816406 252.148438 L 212.417969 252.148438 L 212.417969 300.746094 L 163.816406 300.746094 Z M 163.816406 252.148438 " clip-rule="nonzero"/></clipPath><clipPath id="9555c8dd14"><path d="M 212.320312 276.449219 C 212.320312 289.820312 201.480469 300.667969 188.097656 300.667969 L 188.097656 298.042969 L 188.097656 300.667969 C 174.726562 300.667969 163.878906 289.828125 163.878906 276.449219 L 166.503906 276.449219 L 163.878906 276.449219 C 163.878906 263.074219 174.726562 252.226562 188.097656 252.226562 L 188.097656 254.851562 L 188.097656 252.226562 C 201.472656 252.226562 212.320312 263.066406 212.320312 276.449219 L 209.695312 276.449219 L 212.320312 276.449219 M 207.070312 276.449219 C 207.070312 265.96875 198.578125 257.472656 188.097656 257.472656 C 177.617188 257.472656 169.125 265.96875 169.125 276.449219 C 169.125 286.925781 177.617188 295.421875 188.097656 295.421875 C 198.578125 295.421875 207.070312 286.925781 207.070312 276.449219 Z M 207.070312 276.449219 " clip-rule="nonzero"/></clipPath><clipPath id="e06e3aefd3"><path d="M 0.839844 0.148438 L 49.417969 0.148438 L 49.417969 48.714844 L 0.839844 48.714844 Z M 0.839844 0.148438 " clip-rule="nonzero"/></clipPath><clipPath id="0669f372a6"><path d="M 49.320312 24.449219 C 49.320312 37.820312 38.480469 48.667969 25.097656 48.667969 L 25.097656 46.042969 L 25.097656 48.667969 C 11.726562 48.667969 0.878906 37.828125 0.878906 24.449219 L 3.503906 24.449219 L 0.878906 24.449219 C 0.878906 11.074219 11.726562 0.226562 25.097656 0.226562 L 25.097656 2.851562 L 25.097656 0.226562 C 38.472656 0.226562 49.320312 11.066406 49.320312 24.449219 L 46.695312 24.449219 L 49.320312 24.449219 M 44.070312 24.449219 C 44.070312 13.96875 35.578125 5.472656 25.097656 5.472656 C 14.617188 5.472656 6.125 13.96875 6.125 24.449219 C 6.125 34.925781 14.617188 43.421875 25.097656 43.421875 C 35.578125 43.421875 44.070312 34.925781 44.070312 24.449219 Z M 44.070312 24.449219 " clip-rule="nonzero"/></clipPath><clipPath id="b42fe3976d"><rect x="0" width="50" y="0" height="49"/></clipPath><clipPath id="8bb22f5c40"><path d="M 170 258.128906 L 206 258.128906 L 206 294.765625 L 170 294.765625 Z M 170 258.128906 " clip-rule="nonzero"/></clipPath><clipPath id="be02651488"><path d="M 205.992188 276.449219 C 205.992188 286.328125 197.980469 294.339844 188.097656 294.339844 C 178.21875 294.339844 170.207031 286.328125 170.207031 276.449219 C 170.207031 266.566406 178.21875 258.554688 188.097656 258.554688 C 197.980469 258.554688 205.992188 266.566406 205.992188 276.449219 " clip-rule="nonzero"/></clipPath><clipPath id="6e76cd8719"><path d="M 0.078125 0.496094 L 36 0.496094 L 36 36.476562 L 0.078125 36.476562 Z M 0.078125 0.496094 " clip-rule="nonzero"/></clipPath><clipPath id="acd51a562c"><path d="M 35.992188 18.449219 C 35.992188 28.328125 27.980469 36.339844 18.097656 36.339844 C 8.21875 36.339844 0.207031 28.328125 0.207031 18.449219 C 0.207031 8.566406 8.21875 0.554688 18.097656 0.554688 C 27.980469 0.554688 35.992188 8.566406 35.992188 18.449219 " clip-rule="nonzero"/></clipPath><clipPath id="1f694a458b"><rect x="0" width="36" y="0" height="37"/></clipPath><clipPath id="6777f181af"><path d="M 337.59375 186.257812 L 439.550781 186.257812 L 439.550781 210.558594 L 337.59375 210.558594 Z M 337.59375 210.558594 L 365.15625 210.558594 L 365.15625 248.796875 L 337.59375 248.796875 Z M 337.59375 248.796875 L 439.550781 248.796875 L 439.550781 271.917969 L 337.59375 271.917969 Z M 412.878906 271.917969 L 439.550781 271.917969 L 439.550781 308.671875 L 412.878906 308.671875 Z M 337.59375 308.671875 L 439.550781 308.671875 L 439.550781 334.160156 L 337.59375 334.160156 Z M 337.59375 308.671875 " clip-rule="nonzero"/></clipPath><clipPath id="5f04c05922"><path d="M 0.59375 0.257812 L 102.550781 0.257812 L 102.550781 24.558594 L 0.59375 24.558594 Z M 0.59375 24.558594 L 28.15625 24.558594 L 28.15625 62.796875 L 0.59375 62.796875 Z M 0.59375 62.796875 L 102.550781 62.796875 L 102.550781 85.917969 L 0.59375 85.917969 Z M 75.878906 85.917969 L 102.550781 85.917969 L 102.550781 122.671875 L 75.878906 122.671875 Z M 0.59375 122.671875 L 102.550781 122.671875 L 102.550781 148.160156 L 0.59375 148.160156 Z M 0.59375 122.671875 " clip-rule="nonzero"/></clipPath><clipPath id="6c374aa279"><rect x="0" width="103" y="0" height="149"/></clipPath><clipPath id="8c24d843f3"><path d="M 479.40625 318.097656 L 490.839844 318.097656 L 490.839844 326.3125 L 479.40625 326.3125 Z M 479.40625 318.097656 " clip-rule="nonzero"/></clipPath><clipPath id="4b94e8b1b1"><path d="M 490.78125 326.203125 L 487.273438 318.203125 L 479.566406 318.203125 L 482.085938 326.203125 Z M 490.78125 326.203125 " clip-rule="nonzero"/></clipPath><clipPath id="5400eafe38"><path d="M 0.527344 0.0976562 L 11.800781 0.0976562 L 11.800781 8.3125 L 0.527344 8.3125 Z M 0.527344 0.0976562 " clip-rule="nonzero"/></clipPath><clipPath id="5117e37ad9"><path d="M 11.78125 8.203125 L 8.273438 0.203125 L 0.566406 0.203125 L 3.085938 8.203125 Z M 11.78125 8.203125 " clip-rule="nonzero"/></clipPath><clipPath id="c51b664643"><rect x="0" width="12" y="0" height="9"/></clipPath><clipPath id="ac3d5ad2fd"><path d="M 485.660156 333.816406 L 497 333.816406 L 497 342 L 485.660156 342 Z M 485.660156 333.816406 " clip-rule="nonzero"/></clipPath><clipPath id="f3f97675c9"><path d="M 496.957031 341.96875 L 493.449219 333.960938 L 485.742188 333.960938 L 488.261719 341.96875 Z M 496.957031 341.96875 " clip-rule="nonzero"/></clipPath><clipPath id="ce7b0358fc"><path d="M 0.660156 0.816406 L 12 0.816406 L 12 8.972656 L 0.660156 8.972656 Z M 0.660156 0.816406 " clip-rule="nonzero"/></clipPath><clipPath id="190e53325c"><path d="M 11.957031 8.96875 L 8.449219 0.960938 L 0.742188 0.960938 L 3.261719 8.96875 Z M 11.957031 8.96875 " clip-rule="nonzero"/></clipPath><clipPath id="576ffefdfa"><rect x="0" width="12" y="0" height="9"/></clipPath><clipPath id="6d73716557"><path d="M 462.96875 278.433594 L 501.207031 278.433594 L 501.207031 334.15625 L 462.96875 334.15625 Z M 462.96875 278.433594 " clip-rule="nonzero"/></clipPath><clipPath id="0875617c1b"><path d="M 0.96875 0.433594 L 39.207031 0.433594 L 39.207031 56.15625 L 0.96875 56.15625 Z M 0.96875 0.433594 " clip-rule="nonzero"/></clipPath><clipPath id="e8f6298f46"><rect x="0" width="40" y="0" height="57"/></clipPath><clipPath id="bb4580a3cb"><path d="M 472.441406 287.011719 L 493.519531 287.011719 L 493.519531 325.957031 L 472.441406 325.957031 Z M 472.441406 287.011719 " clip-rule="nonzero"/></clipPath><clipPath id="eef1337a4d"><path d="M 482.085938 325.855469 L 472.453125 325.855469 L 472.453125 287.035156 L 493.492188 287.035156 L 493.492188 325.863281 Z M 482.085938 325.855469 " clip-rule="nonzero"/></clipPath><clipPath id="95bdeff542"><path d="M 0.441406 0.0117188 L 21.519531 0.0117188 L 21.519531 38.902344 L 0.441406 38.902344 Z M 0.441406 0.0117188 " clip-rule="nonzero"/></clipPath><clipPath id="266184ed13"><path d="M 10.085938 38.855469 L 0.453125 38.855469 L 0.453125 0.0351562 L 21.492188 0.0351562 L 21.492188 38.863281 Z M 10.085938 38.855469 " clip-rule="nonzero"/></clipPath><clipPath id="b6917811be"><rect x="0" width="22" y="0" height="39"/></clipPath><clipPath id="237954593b"><path d="M 462.96875 186.257812 L 506.386719 186.257812 L 506.386719 196.632812 L 462.96875 196.632812 Z M 478.972656 196.632812 L 490.53125 196.632812 L 490.53125 242.277344 L 478.972656 242.277344 Z M 478.972656 196.632812 " clip-rule="nonzero"/></clipPath><clipPath id="fc026016f0"><path d="M 0.96875 0.257812 L 44.386719 0.257812 L 44.386719 10.632812 L 0.96875 10.632812 Z M 16.972656 10.632812 L 28.53125 10.632812 L 28.53125 56.277344 L 16.972656 56.277344 Z M 16.972656 10.632812 " clip-rule="nonzero"/></clipPath><clipPath id="db852e8d8f"><rect x="0" width="45" y="0" height="57"/></clipPath><clipPath id="f760bf7572"><path d="M 576.195312 186.257812 L 588.34375 186.257812 L 588.34375 231.902344 L 576.195312 231.902344 Z M 547.144531 186.257812 L 558.703125 186.257812 L 558.703125 231.902344 L 547.144531 231.902344 Z M 547.144531 231.902344 L 588.34375 231.902344 L 588.34375 242.277344 L 547.144531 242.277344 Z M 547.144531 231.902344 " clip-rule="nonzero"/></clipPath><clipPath id="30bf2eaec6"><path d="M 29.195312 0.257812 L 41.34375 0.257812 L 41.34375 45.902344 L 29.195312 45.902344 Z M 0.144531 0.257812 L 11.703125 0.257812 L 11.703125 45.902344 L 0.144531 45.902344 Z M 0.144531 45.902344 L 41.34375 45.902344 L 41.34375 56.277344 L 0.144531 56.277344 Z M 0.144531 45.902344 " clip-rule="nonzero"/></clipPath><clipPath id="781ffd658d"><rect x="0" width="42" y="0" height="57"/></clipPath><clipPath id="a70a557114"><path d="M 577.082031 278.433594 L 585.972656 278.433594 L 585.972656 325.855469 L 577.082031 325.855469 Z M 548.625 278.433594 L 559 278.433594 L 559 325.855469 L 548.625 325.855469 Z M 548.625 325.855469 L 585.972656 325.855469 L 585.972656 334.15625 L 548.625 334.15625 Z M 548.625 325.855469 " clip-rule="nonzero"/></clipPath><clipPath id="ec13fa4b6d"><path d="M 29.082031 0.433594 L 37.972656 0.433594 L 37.972656 47.855469 L 29.082031 47.855469 Z M 0.625 0.433594 L 11 0.433594 L 11 47.855469 L 0.625 47.855469 Z M 0.625 47.855469 L 37.972656 47.855469 L 37.972656 56.15625 L 0.625 56.15625 Z M 0.625 47.855469 " clip-rule="nonzero"/></clipPath><clipPath id="642ffc6766"><rect x="0" width="38" y="0" height="57"/></clipPath><clipPath id="3226e3965c"><path d="M 336.09375 352.257812 L 598.292969 352.257812 L 598.292969 385.332031 L 336.09375 385.332031 Z M 336.09375 352.257812 " clip-rule="nonzero"/></clipPath><clipPath id="2bb5dd225e"><path d="M 0.09375 0.257812 L 262.292969 0.257812 L 262.292969 33.332031 L 0.09375 33.332031 Z M 0.09375 0.257812 " clip-rule="nonzero"/></clipPath><clipPath id="04f73b2190"><rect x="0" width="263" y="0" height="34"/></clipPath><clipPath id="77c34e99b1"><path d="M 352.625 359.003906 L 356.679688 359.003906 L 356.679688 374.699219 L 352.625 374.699219 Z M 341.957031 359.003906 L 346.363281 359.003906 L 346.363281 374.699219 L 341.957031 374.699219 Z M 341.957031 374.699219 L 356.679688 374.699219 L 356.679688 378.585938 L 341.957031 378.585938 Z M 341.957031 374.699219 " clip-rule="nonzero"/></clipPath><clipPath id="5ccc2fe3d0"><path d="M 11.625 0.00390625 L 15.679688 0.00390625 L 15.679688 15.699219 L 11.625 15.699219 Z M 0.957031 0.00390625 L 5.363281 0.00390625 L 5.363281 15.699219 L 0.957031 15.699219 Z M 0.957031 15.699219 L 15.679688 15.699219 L 15.679688 19.585938 L 0.957031 19.585938 Z M 0.957031 15.699219 " clip-rule="nonzero"/></clipPath><clipPath id="63ae58b658"><rect x="0" width="16" y="0" height="20"/></clipPath><clipPath id="256d2d937a"><path d="M 358.492188 359 L 373 359 L 373 378.617188 L 358.492188 378.617188 Z M 358.492188 359 " clip-rule="nonzero"/></clipPath><clipPath id="2836526d3f"><path d="M 358.539062 359.003906 L 358.539062 378.585938 L 363.207031 378.585938 L 363.207031 368.171875 L 368.851562 378.578125 L 373 378.578125 L 373 359.003906 L 368.328125 359.003906 L 368.417969 368.792969 L 363.214844 359.003906 Z M 358.539062 359.003906 " clip-rule="nonzero"/></clipPath><clipPath id="0a71c7f82b"><path d="M 0.492188 0 L 15 0 L 15 19.617188 L 0.492188 19.617188 Z M 0.492188 0 " clip-rule="nonzero"/></clipPath><clipPath id="1dac193825"><path d="M 0.539062 0.00390625 L 0.539062 19.585938 L 5.207031 19.585938 L 5.207031 9.171875 L 10.851562 19.578125 L 15 19.578125 L 15 0.00390625 L 10.328125 0.00390625 L 10.417969 9.792969 L 5.214844 0.00390625 Z M 0.539062 0.00390625 " clip-rule="nonzero"/></clipPath><clipPath id="acbdd75246"><rect x="0" width="15" y="0" height="20"/></clipPath><clipPath id="d742f1b97a"><path d="M 376.398438 359 L 390.34375 359 L 390.34375 378.617188 L 376.398438 378.617188 Z M 376.398438 359 " clip-rule="nonzero"/></clipPath><clipPath id="517ba0e3fe"><path d="M 376.4375 359.003906 L 381.109375 378.585938 L 385.605469 378.585938 L 390.285156 359.003906 L 385.703125 359.003906 L 383.367188 372.757812 L 380.855469 359.003906 Z M 376.4375 359.003906 " clip-rule="nonzero"/></clipPath><clipPath id="efb3a40ea5"><path d="M 0.398438 0 L 14.289062 0 L 14.289062 19.617188 L 0.398438 19.617188 Z M 0.398438 0 " clip-rule="nonzero"/></clipPath><clipPath id="f77062b4e7"><path d="M 0.4375 0.00390625 L 5.109375 19.585938 L 9.605469 19.585938 L 14.285156 0.00390625 L 9.703125 0.00390625 L 7.367188 13.757812 L 4.855469 0.00390625 Z M 0.4375 0.00390625 " clip-rule="nonzero"/></clipPath><clipPath id="d84427233a"><rect x="0" width="15" y="0" height="20"/></clipPath><clipPath id="b0e0db0605"><path d="M 392.757812 359.003906 L 406.777344 359.003906 L 406.777344 362.527344 L 392.757812 362.527344 Z M 392.757812 362.527344 L 396.460938 362.527344 L 396.460938 366.941406 L 392.757812 366.941406 Z M 392.757812 366.941406 L 406.777344 366.941406 L 406.777344 370.113281 L 392.757812 370.113281 Z M 392.757812 370.113281 L 396.460938 370.113281 L 396.460938 374.347656 L 392.757812 374.347656 Z M 392.757812 374.347656 L 406.777344 374.347656 L 406.777344 378.585938 L 392.757812 378.585938 Z M 392.757812 374.347656 " clip-rule="nonzero"/></clipPath><clipPath id="e6fcf6cf10"><path d="M 0.757812 0.00390625 L 14.777344 0.00390625 L 14.777344 3.527344 L 0.757812 3.527344 Z M 0.757812 3.527344 L 4.460938 3.527344 L 4.460938 7.941406 L 0.757812 7.941406 Z M 0.757812 7.941406 L 14.777344 7.941406 L 14.777344 11.113281 L 0.757812 11.113281 Z M 0.757812 11.113281 L 4.460938 11.113281 L 4.460938 15.347656 L 0.757812 15.347656 Z M 0.757812 15.347656 L 14.777344 15.347656 L 14.777344 19.585938 L 0.757812 19.585938 Z M 0.757812 15.347656 " clip-rule="nonzero"/></clipPath><clipPath id="67419b9cfd"><rect x="0" width="15" y="0" height="20"/></clipPath><clipPath id="857c22df0a"><path d="M 408.988281 359.003906 L 413.042969 359.003906 L 413.042969 378.585938 L 408.988281 378.585938 Z M 408.988281 359.003906 " clip-rule="nonzero"/></clipPath><clipPath id="7e7061bdfc"><path d="M 0.988281 0.00390625 L 5.042969 0.00390625 L 5.042969 19.585938 L 0.988281 19.585938 Z M 0.988281 0.00390625 " clip-rule="nonzero"/></clipPath><clipPath id="ab4ad1b9e9"><rect x="0" width="6" y="0" height="20"/></clipPath><clipPath id="4aae832c4d"><path d="M 416.042969 359.003906 L 420.1875 359.003906 L 420.1875 374.257812 L 416.042969 374.257812 Z M 416.042969 374.257812 L 430.464844 374.257812 L 430.464844 378.585938 L 416.042969 378.585938 Z M 416.042969 374.257812 " clip-rule="nonzero"/></clipPath><clipPath id="2439cfc579"><path d="M 0.0429688 0.00390625 L 4.1875 0.00390625 L 4.1875 15.257812 L 0.0429688 15.257812 Z M 0.0429688 15.257812 L 14.464844 15.257812 L 14.464844 19.585938 L 0.0429688 19.585938 Z M 0.0429688 15.257812 " clip-rule="nonzero"/></clipPath><clipPath id="51af50e355"><rect x="0" width="15" y="0" height="20"/></clipPath><clipPath id="2e42cc6fc8"><path d="M 432.355469 359.003906 L 436.851562 359.003906 L 436.851562 377.960938 L 432.355469 377.960938 Z M 432.355469 359.003906 " clip-rule="nonzero"/></clipPath><clipPath id="aff0b1eef2"><path d="M 0.355469 0.00390625 L 4.851562 0.00390625 L 4.851562 18.960938 L 0.355469 18.960938 Z M 0.355469 0.00390625 " clip-rule="nonzero"/></clipPath><clipPath id="bf479e602a"><rect x="0" width="5" y="0" height="19"/></clipPath><clipPath id="8a8e96259b"><path d="M 439.152344 359 L 453.097656 359 L 453.097656 377.984375 L 439.152344 377.984375 Z M 439.152344 359 " clip-rule="nonzero"/></clipPath><clipPath id="a4db194e29"><path d="M 439.234375 359.003906 L 439.234375 377.960938 L 443.382812 377.960938 L 443.382812 367.738281 L 449.027344 377.96875 L 453.082031 377.96875 L 453.082031 359.003906 L 449.117188 359.003906 L 449.117188 369.320312 L 443.203125 359.003906 Z M 439.234375 359.003906 " clip-rule="nonzero"/></clipPath><clipPath id="93ce384898"><path d="M 0.226562 0 L 14.097656 0 L 14.097656 18.984375 L 0.226562 18.984375 Z M 0.226562 0 " clip-rule="nonzero"/></clipPath><clipPath id="799ccd1f4b"><path d="M 0.234375 0.00390625 L 0.234375 18.960938 L 4.382812 18.960938 L 4.382812 8.738281 L 10.027344 18.96875 L 14.082031 18.96875 L 14.082031 0.00390625 L 10.117188 0.00390625 L 10.117188 10.320312 L 4.203125 0.00390625 Z M 0.234375 0.00390625 " clip-rule="nonzero"/></clipPath><clipPath id="b624bfab7d"><rect x="0" width="15" y="0" height="19"/></clipPath><clipPath id="0cb05e9743"><path d="M 455.632812 359 L 469.898438 359 L 469.898438 377.984375 L 455.632812 377.984375 Z M 455.632812 359 " clip-rule="nonzero"/></clipPath><clipPath id="02d39fe838"><path d="M 455.636719 359.003906 L 455.636719 377.960938 L 469.746094 377.960938 L 469.746094 366.851562 L 461.410156 366.761719 L 461.410156 370.726562 L 465.421875 370.726562 L 465.421875 374.257812 L 459.515625 374.257812 L 459.515625 362.617188 L 469.746094 362.617188 L 469.746094 359.003906 Z M 455.636719 359.003906 " clip-rule="nonzero"/></clipPath><clipPath id="ec5230bce3"><path d="M 0.632812 0 L 14.898438 0 L 14.898438 18.984375 L 0.632812 18.984375 Z M 0.632812 0 " clip-rule="nonzero"/></clipPath><clipPath id="5ba90e903e"><path d="M 0.636719 0.00390625 L 0.636719 18.960938 L 14.746094 18.960938 L 14.746094 7.851562 L 6.410156 7.761719 L 6.410156 11.726562 L 10.421875 11.726562 L 10.421875 15.257812 L 4.515625 15.257812 L 4.515625 3.617188 L 14.746094 3.617188 L 14.746094 0.00390625 Z M 0.636719 0.00390625 " clip-rule="nonzero"/></clipPath><clipPath id="79ffdfe83b"><rect x="0" width="15" y="0" height="19"/></clipPath><clipPath id="e84343e325"><path d="M 478.742188 359.003906 L 493.210938 359.003906 L 493.210938 362.527344 L 478.742188 362.527344 Z M 478.742188 362.527344 L 482.976562 362.527344 L 482.976562 366.148438 L 478.742188 366.148438 Z M 478.742188 366.148438 L 493.203125 366.148438 L 493.203125 370.203125 L 478.742188 370.203125 Z M 489.5 370.203125 L 493.203125 370.203125 L 493.203125 374.519531 L 489.5 374.519531 Z M 478.742188 374.519531 L 493.203125 374.519531 L 493.203125 378.578125 L 478.742188 378.578125 Z M 478.742188 374.519531 " clip-rule="nonzero"/></clipPath><clipPath id="14d88d700e"><path d="M 0.742188 0.00390625 L 15.210938 0.00390625 L 15.210938 3.527344 L 0.742188 3.527344 Z M 0.742188 3.527344 L 4.976562 3.527344 L 4.976562 7.148438 L 0.742188 7.148438 Z M 0.742188 7.148438 L 15.203125 7.148438 L 15.203125 11.203125 L 0.742188 11.203125 Z M 11.5 11.203125 L 15.203125 11.203125 L 15.203125 15.519531 L 11.5 15.519531 Z M 0.742188 15.519531 L 15.203125 15.519531 L 15.203125 19.578125 L 0.742188 19.578125 Z M 0.742188 15.519531 " clip-rule="nonzero"/></clipPath><clipPath id="251936a13b"><rect x="0" width="16" y="0" height="20"/></clipPath><clipPath id="b1c09f44b3"><path d="M 504.851562 359.003906 L 509.703125 359.003906 L 509.703125 374.085938 L 504.851562 374.085938 Z M 495.675781 359.003906 L 499.648438 359.003906 L 499.648438 374.085938 L 495.675781 374.085938 Z M 495.675781 374.085938 L 509.703125 374.085938 L 509.703125 377.960938 L 495.675781 377.960938 Z M 495.675781 374.085938 " clip-rule="nonzero"/></clipPath><clipPath id="52c5455e3d"><path d="M 9.851562 0.00390625 L 14.703125 0.00390625 L 14.703125 15.085938 L 9.851562 15.085938 Z M 0.675781 0.00390625 L 4.648438 0.00390625 L 4.648438 15.085938 L 0.675781 15.085938 Z M 0.675781 15.085938 L 14.703125 15.085938 L 14.703125 18.960938 L 0.675781 18.960938 Z M 0.675781 15.085938 " clip-rule="nonzero"/></clipPath><clipPath id="639fd36e8a"><rect x="0" width="15" y="0" height="19"/></clipPath><clipPath id="d194a72db1"><path d="M 511.644531 359.003906 L 526.546875 359.003906 L 526.546875 362.527344 L 511.644531 362.527344 Z M 511.644531 362.527344 L 515.519531 362.527344 L 515.519531 374.085938 L 511.644531 374.085938 Z M 511.644531 374.085938 L 526.546875 374.085938 L 526.546875 378.585938 L 511.644531 378.585938 Z M 511.644531 374.085938 " clip-rule="nonzero"/></clipPath><clipPath id="06dc4e3324"><path d="M 0.644531 0.00390625 L 15.546875 0.00390625 L 15.546875 3.527344 L 0.644531 3.527344 Z M 0.644531 3.527344 L 4.519531 3.527344 L 4.519531 15.085938 L 0.644531 15.085938 Z M 0.644531 15.085938 L 15.546875 15.085938 L 15.546875 19.585938 L 0.644531 19.585938 Z M 0.644531 15.085938 " clip-rule="nonzero"/></clipPath><clipPath id="10f895e66f"><rect x="0" width="16" y="0" height="20"/></clipPath><clipPath id="bbe29a09e6"><path d="M 528.578125 359.003906 L 542.59375 359.003906 L 542.59375 361.824219 L 528.578125 361.824219 Z M 528.578125 361.824219 L 532.542969 361.824219 L 532.542969 374.4375 L 528.578125 374.4375 Z M 528.578125 374.4375 L 543.308594 374.4375 L 543.308594 377.960938 L 528.578125 377.960938 Z M 528.578125 374.4375 " clip-rule="nonzero"/></clipPath><clipPath id="bb866695b8"><path d="M 0.578125 0.00390625 L 14.59375 0.00390625 L 14.59375 2.824219 L 0.578125 2.824219 Z M 0.578125 2.824219 L 4.542969 2.824219 L 4.542969 15.4375 L 0.578125 15.4375 Z M 0.578125 15.4375 L 15.308594 15.4375 L 15.308594 18.960938 L 0.578125 18.960938 Z M 0.578125 15.4375 " clip-rule="nonzero"/></clipPath><clipPath id="43f788bfa2"><rect x="0" width="16" y="0" height="19"/></clipPath><clipPath id="6c26ab2fd0"><path d="M 545.152344 359.003906 L 559.003906 359.003906 L 559.003906 362.796875 L 545.152344 362.796875 Z M 545.152344 362.796875 L 548.773438 362.796875 L 548.773438 366.589844 L 545.152344 366.589844 Z M 545.152344 366.589844 L 559.003906 366.589844 L 559.003906 370.113281 L 545.152344 370.113281 Z M 545.152344 370.113281 L 548.683594 370.113281 L 548.683594 373.996094 L 545.152344 373.996094 Z M 545.152344 373.996094 L 558.996094 373.996094 L 558.996094 378.585938 L 545.152344 378.585938 Z M 545.152344 373.996094 " clip-rule="nonzero"/></clipPath><clipPath id="a35de871b4"><path d="M 0.152344 0.00390625 L 14.003906 0.00390625 L 14.003906 3.796875 L 0.152344 3.796875 Z M 0.152344 3.796875 L 3.773438 3.796875 L 3.773438 7.589844 L 0.152344 7.589844 Z M 0.152344 7.589844 L 14.003906 7.589844 L 14.003906 11.113281 L 0.152344 11.113281 Z M 0.152344 11.113281 L 3.683594 11.113281 L 3.683594 14.996094 L 0.152344 14.996094 Z M 0.152344 14.996094 L 13.996094 14.996094 L 13.996094 19.585938 L 0.152344 19.585938 Z M 0.152344 14.996094 " clip-rule="nonzero"/></clipPath><clipPath id="5d8e0448fb"><rect x="0" width="15" y="0" height="20"/></clipPath><clipPath id="3ed519221c"><path d="M 561.015625 359 L 576 359 L 576 377.984375 L 561.015625 377.984375 Z M 561.015625 359 " clip-rule="nonzero"/></clipPath><clipPath id="5014735cc6"><path d="M 561.164062 359.003906 L 561.164062 370.644531 L 571.703125 370.644531 L 571.703125 374.175781 L 561.164062 374.175781 L 561.164062 377.96875 L 575.9375 377.96875 L 575.9375 366.589844 L 565.617188 366.589844 L 565.617188 362.265625 L 575.9375 362.355469 L 575.9375 359.003906 Z M 561.164062 359.003906 " clip-rule="nonzero"/></clipPath><clipPath id="a507d0901d"><path d="M 0.0859375 0 L 14.957031 0 L 14.957031 18.984375 L 0.0859375 18.984375 Z M 0.0859375 0 " clip-rule="nonzero"/></clipPath><clipPath id="a7d03fadb0"><path d="M 0.164062 0.00390625 L 0.164062 11.644531 L 10.703125 11.644531 L 10.703125 15.175781 L 0.164062 15.175781 L 0.164062 18.96875 L 14.9375 18.96875 L 14.9375 7.589844 L 4.617188 7.589844 L 4.617188 3.265625 L 14.9375 3.355469 L 14.9375 0.00390625 Z M 0.164062 0.00390625 " clip-rule="nonzero"/></clipPath><clipPath id="626ca481fe"><rect x="0" width="15" y="0" height="19"/></clipPath><clipPath id="61f3948821"><path d="M 577.65625 359 L 592.550781 359 L 592.550781 377.984375 L 577.65625 377.984375 Z M 577.65625 359 " clip-rule="nonzero"/></clipPath><clipPath id="399ead6fd7"><path d="M 577.65625 359.003906 L 577.65625 370.644531 L 588.195312 370.644531 L 588.195312 374.175781 L 577.65625 374.175781 L 577.65625 377.96875 L 592.429688 377.96875 L 592.429688 366.589844 L 582.109375 366.589844 L 582.109375 362.265625 L 592.429688 362.355469 L 592.429688 359.003906 Z M 577.65625 359.003906 " clip-rule="nonzero"/></clipPath><clipPath id="134fbfe900"><path d="M 0.65625 0 L 15.511719 0 L 15.511719 18.984375 L 0.65625 18.984375 Z M 0.65625 0 " clip-rule="nonzero"/></clipPath><clipPath id="b232d684fb"><path d="M 0.65625 0.00390625 L 0.65625 11.644531 L 11.195312 11.644531 L 11.195312 15.175781 L 0.65625 15.175781 L 0.65625 18.96875 L 15.429688 18.96875 L 15.429688 7.589844 L 5.109375 7.589844 L 5.109375 3.265625 L 15.429688 3.355469 L 15.429688 0.00390625 Z M 0.65625 0.00390625 " clip-rule="nonzero"/></clipPath><clipPath id="aa225a3cf1"><rect x="0" width="16" y="0" height="19"/></clipPath><clipPath id="c9e043506d"><path d="M 632.804688 278.433594 L 672.519531 278.433594 L 672.519531 309.558594 L 632.804688 309.558594 Z M 632.804688 309.558594 L 643.46875 309.558594 L 643.46875 334.15625 L 632.804688 334.15625 Z M 661.257812 309.558594 L 672.519531 309.558594 L 672.519531 334.15625 L 661.257812 334.15625 Z M 661.257812 309.558594 " clip-rule="nonzero"/></clipPath><clipPath id="a5414417c2"><path d="M 0.804688 0.433594 L 40.519531 0.433594 L 40.519531 31.558594 L 0.804688 31.558594 Z M 0.804688 31.558594 L 11.46875 31.558594 L 11.46875 56.15625 L 0.804688 56.15625 Z M 29.257812 31.558594 L 40.519531 31.558594 L 40.519531 56.15625 L 29.257812 56.15625 Z M 29.257812 31.558594 " clip-rule="nonzero"/></clipPath><clipPath id="80779fa0a3"><rect x="0" width="41" y="0" height="57"/></clipPath><clipPath id="e0259c3632"><path d="M 642.585938 287.035156 L 662.144531 287.035156 L 662.144531 301.855469 L 642.585938 301.855469 Z M 642.585938 287.035156 " clip-rule="nonzero"/></clipPath><clipPath id="9e94b4a92b"><path d="M 0.585938 0.0351562 L 20.144531 0.0351562 L 20.144531 14.855469 L 0.585938 14.855469 Z M 0.585938 0.0351562 " clip-rule="nonzero"/></clipPath><clipPath id="87a3023aac"><rect x="0" width="21" y="0" height="15"/></clipPath><clipPath id="a74038b51b"><path d="M 632.683594 186.1875 L 671.894531 186.1875 L 671.894531 242.28125 L 632.683594 242.28125 Z M 632.683594 186.1875 " clip-rule="nonzero"/></clipPath><clipPath id="67a284b19a"><path d="M 668.546875 242.230469 L 632.804688 242.230469 L 632.804688 186.308594 L 669.023438 186.308594 C 670.546875 186.308594 671.777344 187.535156 671.777344 189.058594 L 671.777344 238.992188 C 671.777344 240.769531 670.320312 242.230469 668.539062 242.230469 " clip-rule="nonzero"/></clipPath><clipPath id="03c6c6b54c"><path d="M 0.683594 0.289062 L 39.894531 0.289062 L 39.894531 56.28125 L 0.683594 56.28125 Z M 0.683594 0.289062 " clip-rule="nonzero"/></clipPath><clipPath id="e028d05338"><path d="M 36.546875 56.230469 L 0.804688 56.230469 L 0.804688 0.308594 L 37.023438 0.308594 C 38.546875 0.308594 39.777344 1.535156 39.777344 3.058594 L 39.777344 52.992188 C 39.777344 54.769531 38.320312 56.230469 36.539062 56.230469 " clip-rule="nonzero"/></clipPath><clipPath id="0433be38b9"><rect x="0" width="40" y="0" height="57"/></clipPath><clipPath id="1ce5674b7c"><path d="M 643.214844 196 L 662 196 L 662 233.570312 L 643.214844 233.570312 Z M 643.214844 196 " clip-rule="nonzero"/></clipPath><clipPath id="a7623620f8"><path d="M 659.992188 233.398438 L 645.328125 233.398438 C 644.21875 233.398438 643.328125 232.5 643.328125 231.398438 L 643.328125 198.0625 C 643.328125 196.953125 644.226562 196.058594 645.328125 196.058594 L 659.992188 196.058594 C 661.101562 196.058594 661.992188 196.960938 661.992188 198.0625 L 661.992188 231.398438 C 661.992188 232.507812 661.09375 233.398438 659.992188 233.398438 " clip-rule="nonzero"/></clipPath><clipPath id="76663e0b14"><path d="M 0.214844 0 L 19 0 L 19 37.546875 L 0.214844 37.546875 Z M 0.214844 0 " clip-rule="nonzero"/></clipPath><clipPath id="833b3af431"><path d="M 16.992188 37.398438 L 2.328125 37.398438 C 1.21875 37.398438 0.328125 36.5 0.328125 35.398438 L 0.328125 2.0625 C 0.328125 0.953125 1.226562 0.0585938 2.328125 0.0585938 L 16.992188 0.0585938 C 18.101562 0.0585938 18.992188 0.960938 18.992188 2.0625 L 18.992188 35.398438 C 18.992188 36.507812 18.09375 37.398438 16.992188 37.398438 " clip-rule="nonzero"/></clipPath><clipPath id="de64a9898a"><rect x="0" width="19" y="0" height="38"/></clipPath><clipPath id="d309c0b8a7"><path d="M 717.570312 187.179688 L 756.695312 187.179688 L 756.695312 197.515625 L 717.570312 197.515625 Z M 717.570312 197.515625 L 729.132812 197.515625 L 729.132812 208.78125 L 717.570312 208.78125 Z M 717.570312 208.78125 L 755.210938 208.78125 L 755.210938 220.042969 L 717.570312 220.042969 Z M 717.570312 220.042969 L 728.238281 220.042969 L 728.238281 232.195312 L 717.570312 232.195312 Z M 717.570312 232.195312 L 756.695312 232.195312 L 756.695312 242.277344 L 717.570312 242.277344 Z M 717.570312 232.195312 " clip-rule="nonzero"/></clipPath><clipPath id="24fa0d7e6f"><path d="M 0.570312 0.179688 L 39.695312 0.179688 L 39.695312 10.515625 L 0.570312 10.515625 Z M 0.570312 10.515625 L 12.132812 10.515625 L 12.132812 21.78125 L 0.570312 21.78125 Z M 0.570312 21.78125 L 38.210938 21.78125 L 38.210938 33.042969 L 0.570312 33.042969 Z M 0.570312 33.042969 L 11.238281 33.042969 L 11.238281 45.195312 L 0.570312 45.195312 Z M 0.570312 45.195312 L 39.695312 45.195312 L 39.695312 55.277344 L 0.570312 55.277344 Z M 0.570312 45.195312 " clip-rule="nonzero"/></clipPath><clipPath id="baddd56b72"><rect x="0" width="40" y="0" height="56"/></clipPath><clipPath id="87fbdc1787"><path d="M 717.527344 278.390625 L 755.257812 278.390625 L 755.257812 334.285156 L 717.527344 334.285156 Z M 717.527344 278.390625 " clip-rule="nonzero"/></clipPath><clipPath id="c44e545a3e"><path d="M 717.570312 278.433594 L 717.570312 334.15625 L 728.539062 334.15625 L 729.003906 309.949219 L 745.433594 334.15625 L 755.210938 334.15625 L 742.765625 310.445312 L 755.21875 311.035156 L 755.21875 278.433594 Z M 717.570312 278.433594 " clip-rule="nonzero"/></clipPath><clipPath id="f2352bc43b"><path d="M 0.527344 0.40625 L 38.257812 0.40625 L 38.257812 56.285156 L 0.527344 56.285156 Z M 0.527344 0.40625 " clip-rule="nonzero"/></clipPath><clipPath id="72a6d22f5c"><path d="M 0.570312 0.433594 L 0.570312 56.15625 L 11.539062 56.15625 L 12.003906 31.949219 L 28.433594 56.15625 L 38.210938 56.15625 L 25.765625 32.445312 L 38.21875 33.035156 L 38.21875 0.433594 Z M 0.570312 0.433594 " clip-rule="nonzero"/></clipPath><clipPath id="16c14f346b"><rect x="0" width="39" y="0" height="57"/></clipPath><clipPath id="32e72c1fb7"><path d="M 728.238281 287.035156 L 746.320312 287.035156 L 746.320312 301.855469 L 728.238281 301.855469 Z M 728.238281 287.035156 " clip-rule="nonzero"/></clipPath><clipPath id="0cb42f3857"><path d="M 0.238281 0.0351562 L 18.320312 0.0351562 L 18.320312 14.855469 L 0.238281 14.855469 Z M 0.238281 0.0351562 " clip-rule="nonzero"/></clipPath><clipPath id="9a7097cd86"><rect x="0" width="19" y="0" height="15"/></clipPath><clipPath id="c5daae4c86"><path d="M 801.453125 186.257812 L 841.621094 186.257812 L 841.621094 242.367188 L 801.453125 242.367188 Z M 801.453125 186.257812 " clip-rule="nonzero"/></clipPath><clipPath id="acede0e96e"><path d="M 801.453125 186.257812 L 801.453125 242.277344 L 813.601562 242.277344 L 813.601562 212.335938 L 828.421875 242.277344 L 841.46875 242.277344 L 841.46875 186.257812 L 828.722656 186.257812 L 828.722656 214.726562 L 813.601562 186.257812 Z M 801.453125 186.257812 " clip-rule="nonzero"/></clipPath><clipPath id="dd31d736d1"><path d="M 0.453125 0.257812 L 40.507812 0.257812 L 40.507812 56.367188 L 0.453125 56.367188 Z M 0.453125 0.257812 " clip-rule="nonzero"/></clipPath><clipPath id="2b093ed442"><path d="M 0.453125 0.257812 L 0.453125 56.277344 L 12.601562 56.277344 L 12.601562 26.335938 L 27.421875 56.277344 L 40.46875 56.277344 L 40.46875 0.257812 L 27.722656 0.257812 L 27.722656 28.726562 L 12.601562 0.257812 Z M 0.453125 0.257812 " clip-rule="nonzero"/></clipPath><clipPath id="33ba044cd9"><rect x="0" width="41" y="0" height="57"/></clipPath><clipPath id="25d9e0ee0a"><path d="M 803.527344 278.433594 L 841.464844 278.433594 L 841.464844 287.035156 L 803.527344 287.035156 Z M 803.527344 287.035156 L 813.601562 287.035156 L 813.601562 301.847656 L 803.527344 301.847656 Z M 803.527344 301.847656 L 841.464844 301.847656 L 841.464844 309.851562 L 803.527344 309.851562 Z M 803.527344 309.851562 L 813.601562 309.851562 L 813.601562 324.671875 L 803.527344 324.671875 Z M 803.527344 324.671875 L 841.464844 324.671875 L 841.464844 334.15625 L 803.527344 334.15625 Z M 803.527344 324.671875 " clip-rule="nonzero"/></clipPath><clipPath id="bb9846baac"><path d="M 0.527344 0.433594 L 38.464844 0.433594 L 38.464844 9.035156 L 0.527344 9.035156 Z M 0.527344 9.035156 L 10.601562 9.035156 L 10.601562 23.847656 L 0.527344 23.847656 Z M 0.527344 23.847656 L 38.464844 23.847656 L 38.464844 31.851562 L 0.527344 31.851562 Z M 0.527344 31.851562 L 10.601562 31.851562 L 10.601562 46.671875 L 0.527344 46.671875 Z M 0.527344 46.671875 L 38.464844 46.671875 L 38.464844 56.15625 L 0.527344 56.15625 Z M 0.527344 46.671875 " clip-rule="nonzero"/></clipPath><clipPath id="2d604f8820"><rect x="0" width="39" y="0" height="57"/></clipPath><clipPath id="27abacbe48"><path d="M 885.035156 186.257812 L 925.203125 186.257812 L 925.203125 242.371094 L 885.035156 242.371094 Z M 885.035156 186.257812 " clip-rule="nonzero"/></clipPath><clipPath id="8d498f2d56"><path d="M 885.035156 197.515625 L 885.035156 186.257812 L 925.050781 186.257812 L 925.050781 197.515625 L 912.007812 197.515625 L 912.007812 242.269531 L 899.855469 242.269531 L 900.449219 197.21875 Z M 885.035156 197.515625 " clip-rule="nonzero"/></clipPath><clipPath id="b570961033"><path d="M 0.0351562 0.257812 L 40.203125 0.257812 L 40.203125 56.371094 L 0.0351562 56.371094 Z M 0.0351562 0.257812 " clip-rule="nonzero"/></clipPath><clipPath id="c3d64a5e63"><path d="M 0.0351562 11.515625 L 0.0351562 0.257812 L 40.050781 0.257812 L 40.050781 11.515625 L 27.007812 11.515625 L 27.007812 56.269531 L 14.855469 56.269531 L 15.449219 11.21875 Z M 0.0351562 11.515625 " clip-rule="nonzero"/></clipPath><clipPath id="245525abd5"><rect x="0" width="41" y="0" height="57"/></clipPath></defs><g clip-path="url(#6605fa355e)"><g clip-path="url(#76194c35d1)"><g transform="matrix(1, 0, 0, 1, 123, 154)"><g clip-path="url(#55b2d95d9d)"><g clip-path="url(#d77cac0132)"><g clip-path="url(#2868713199)"><rect x="-348.39" width="1475.28" fill="#ec1c24" height="829.44" y="-280.72" fill-opacity="1"/></g></g></g></g></g></g><g clip-path="url(#2fbc8106ce)"><g clip-path="url(#4ef5e2f97a)"><g transform="matrix(1, 0, 0, 1, 183, 192)"><g clip-path="url(#17ff367d42)"><g clip-path="url(#7688e70729)"><g clip-path="url(#d684196bbb)"><rect x="-408.39" width="1475.28" fill="#37b34a" height="829.44" y="-318.72" fill-opacity="1"/></g></g></g></g></g></g><g clip-path="url(#21da57cea0)"><g clip-path="url(#9607c0e4c1)"><g transform="matrix(1, 0, 0, 1, 197, 206)"><g clip-path="url(#23d7f5f90f)"><g clip-path="url(#09ca0c77c0)"><g clip-path="url(#099ad1856a)"><rect x="-422.39" width="1475.28" fill="#ec1c24" height="829.44" y="-332.72" fill-opacity="1"/></g></g></g></g></g></g><g clip-path="url(#0f7a104cd8)"><g clip-path="url(#d96fae4735)"><g transform="matrix(1, 0, 0, 1, 209, 273)"><g clip-path="url(#2de6c1236a)"><g clip-path="url(#5520c7608b)"><g clip-path="url(#fbf80373a8)"><rect x="-434.39" width="1475.28" fill="#37b34a" height="829.44" y="-399.72" fill-opacity="1"/></g></g></g></g></g></g><g clip-path="url(#34f6ac1e0d)"><g clip-path="url(#5a1bdd6acb)"><g transform="matrix(1, 0, 0, 1, 151, 288)"><g clip-path="url(#479ea77771)"><g clip-path="url(#86acaa310a)"><g clip-path="url(#c6ecf90dfe)"><rect x="-376.39" width="1475.28" fill="#ec1c24" height="829.44" y="-414.72" fill-opacity="1"/></g></g></g></g></g></g><g clip-path="url(#7783e32a7b)"><g clip-path="url(#f78b277be9)"><g transform="matrix(1, 0, 0, 1, 99, 299)"><g clip-path="url(#bfd65d490c)"><g clip-path="url(#9a641c5703)"><g clip-path="url(#679ab1a476)"><rect x="-324.39" width="1475.28" fill="#37b34a" height="829.44" y="-425.72" fill-opacity="1"/></g></g></g></g></g></g><g clip-path="url(#a33cc2aa47)"><g clip-path="url(#c7a6c03a60)"><g transform="matrix(1, 0, 0, 1, 64, 241)"><g clip-path="url(#bc283ce224)"><g clip-path="url(#2fafc98234)"><g clip-path="url(#04fd77741f)"><rect x="-289.39" width="1475.28" fill="#ec1c24" height="829.44" y="-367.72" fill-opacity="1"/></g></g></g></g></g></g><g clip-path="url(#4ce91658e5)"><g clip-path="url(#0462912eaf)"><g transform="matrix(1, 0, 0, 1, 98, 192)"><g clip-path="url(#90d13d1ecc)"><g clip-path="url(#6ac249698e)"><g clip-path="url(#b51ea34821)"><rect x="-323.39" width="1475.28" fill="#37b34a" height="829.44" y="-318.72" fill-opacity="1"/></g></g></g></g></g></g><g clip-path="url(#648a13eb3e)"><g clip-path="url(#9555c8dd14)"><g transform="matrix(1, 0, 0, 1, 163, 252)"><g clip-path="url(#b42fe3976d)"><g clip-path="url(#e06e3aefd3)"><g clip-path="url(#0669f372a6)"><rect x="-388.39" width="1475.28" fill="#ec1c24" height="829.44" y="-378.72" fill-opacity="1"/></g></g></g></g></g></g><g clip-path="url(#8bb22f5c40)"><g clip-path="url(#be02651488)"><g transform="matrix(1, 0, 0, 1, 170, 258)"><g clip-path="url(#1f694a458b)"><g clip-path="url(#6e76cd8719)"><g clip-path="url(#acd51a562c)"><rect x="-395.39" width="1475.28" fill="#ec1c24" height="829.44" y="-384.72" fill-opacity="1"/></g></g></g></g></g></g><g clip-path="url(#6777f181af)"><g transform="matrix(1, 0, 0, 1, 337, 186)"><g clip-path="url(#6c374aa279)"><g clip-path="url(#5f04c05922)"><path fill="#ec1c24" d="M 0.59375 0.257812 L 102.554688 0.257812 L 102.554688 148.019531 L 0.59375 148.019531 Z M 0.59375 0.257812 " fill-opacity="1" fill-rule="nonzero"/></g></g></g></g><g clip-path="url(#8c24d843f3)"><g clip-path="url(#4b94e8b1b1)"><g transform="matrix(1, 0, 0, 1, 479, 318)"><g clip-path="url(#c51b664643)"><g clip-path="url(#5400eafe38)"><g clip-path="url(#5117e37ad9)"><rect x="-704.39" width="1475.28" fill="#4bb148" height="829.44" y="-444.72" fill-opacity="1"/></g></g></g></g></g></g><g clip-path="url(#ac3d5ad2fd)"><g clip-path="url(#f3f97675c9)"><g transform="matrix(1, 0, 0, 1, 485, 333)"><g clip-path="url(#576ffefdfa)"><g clip-path="url(#ce7b0358fc)"><g clip-path="url(#190e53325c)"><rect x="-710.39" width="1475.28" fill="#4bb148" height="829.44" y="-459.72" fill-opacity="1"/></g></g></g></g></g></g><g clip-path="url(#6d73716557)"><g transform="matrix(1, 0, 0, 1, 462, 278)"><g clip-path="url(#e8f6298f46)"><g clip-path="url(#0875617c1b)"><rect x="-687.39" width="1475.28" fill="#4bb148" height="829.44" y="-404.72" fill-opacity="1"/></g></g></g></g><g clip-path="url(#bb4580a3cb)"><g clip-path="url(#eef1337a4d)"><g transform="matrix(1, 0, 0, 1, 472, 287)"><g clip-path="url(#b6917811be)"><g clip-path="url(#95bdeff542)"><g clip-path="url(#266184ed13)"><rect x="-697.39" width="1475.28" fill="#ffffff" height="829.44" y="-413.72" fill-opacity="1"/></g></g></g></g></g></g><g clip-path="url(#237954593b)"><g transform="matrix(1, 0, 0, 1, 462, 186)"><g clip-path="url(#db852e8d8f)"><g clip-path="url(#fc026016f0)"><path fill="#ec1c24" d="M 0.96875 0.257812 L 44.390625 0.257812 L 44.390625 56.230469 L 0.96875 56.230469 Z M 0.96875 0.257812 " fill-opacity="1" fill-rule="nonzero"/></g></g></g></g><g clip-path="url(#f760bf7572)"><g transform="matrix(1, 0, 0, 1, 547, 186)"><g clip-path="url(#781ffd658d)"><g clip-path="url(#30bf2eaec6)"><path fill="#ec1c24" d="M 0.144531 0.257812 L 41.34375 0.257812 L 41.34375 56.261719 L 0.144531 56.261719 Z M 0.144531 0.257812 " fill-opacity="1" fill-rule="nonzero"/></g></g></g></g><g clip-path="url(#a70a557114)"><g transform="matrix(1, 0, 0, 1, 548, 278)"><g clip-path="url(#642ffc6766)"><g clip-path="url(#ec13fa4b6d)"><path fill="#37b34a" d="M 0.625 0.433594 L 37.972656 0.433594 L 37.972656 56.160156 L 0.625 56.160156 Z M 0.625 0.433594 " fill-opacity="1" fill-rule="nonzero"/></g></g></g></g><g clip-path="url(#3226e3965c)"><g transform="matrix(1, 0, 0, 1, 336, 352)"><g clip-path="url(#04f73b2190)"><g clip-path="url(#2bb5dd225e)"><rect x="-561.39" width="1475.28" fill="#37b34a" height="829.44" y="-478.72" fill-opacity="1"/></g></g></g></g><g clip-path="url(#77c34e99b1)"><g transform="matrix(1, 0, 0, 1, 341, 359)"><g clip-path="url(#63ae58b658)"><g clip-path="url(#5ccc2fe3d0)"><rect x="-566.39" width="1475.28" fill="#ffffff" height="829.44" y="-485.72" fill-opacity="1"/></g></g></g></g><g clip-path="url(#256d2d937a)"><g clip-path="url(#2836526d3f)"><g transform="matrix(1, 0, 0, 1, 358, 359)"><g clip-path="url(#acbdd75246)"><g clip-path="url(#0a71c7f82b)"><g clip-path="url(#1dac193825)"><rect x="-583.39" width="1475.28" fill="#ffffff" height="829.44" y="-485.72" fill-opacity="1"/></g></g></g></g></g></g><g clip-path="url(#d742f1b97a)"><g clip-path="url(#517ba0e3fe)"><g transform="matrix(1, 0, 0, 1, 376, 359)"><g clip-path="url(#d84427233a)"><g clip-path="url(#efb3a40ea5)"><g clip-path="url(#f77062b4e7)"><rect x="-601.39" width="1475.28" fill="#ffffff" height="829.44" y="-485.72" fill-opacity="1"/></g></g></g></g></g></g><g clip-path="url(#b0e0db0605)"><g transform="matrix(1, 0, 0, 1, 392, 359)"><g clip-path="url(#67419b9cfd)"><g clip-path="url(#e6fcf6cf10)"><rect x="-617.39" width="1475.28" fill="#ffffff" height="829.44" y="-485.72" fill-opacity="1"/></g></g></g></g><g clip-path="url(#857c22df0a)"><g transform="matrix(1, 0, 0, 1, 408, 359)"><g clip-path="url(#ab4ad1b9e9)"><g clip-path="url(#7e7061bdfc)"><rect x="-633.39" width="1475.28" fill="#ffffff" height="829.44" y="-485.72" fill-opacity="1"/></g></g></g></g><g clip-path="url(#4aae832c4d)"><g transform="matrix(1, 0, 0, 1, 416, 359)"><g clip-path="url(#51af50e355)"><g clip-path="url(#2439cfc579)"><rect x="-641.39" width="1475.28" fill="#ffffff" height="829.44" y="-485.72" fill-opacity="1"/></g></g></g></g><g clip-path="url(#2e42cc6fc8)"><g transform="matrix(1, 0, 0, 1, 432, 359)"><g clip-path="url(#bf479e602a)"><g clip-path="url(#aff0b1eef2)"><rect x="-657.39" width="1475.28" fill="#ffffff" height="829.44" y="-485.72" fill-opacity="1"/></g></g></g></g><g clip-path="url(#8a8e96259b)"><g clip-path="url(#a4db194e29)"><g transform="matrix(1, 0, 0, 1, 439, 359)"><g clip-path="url(#b624bfab7d)"><g clip-path="url(#93ce384898)"><g clip-path="url(#799ccd1f4b)"><rect x="-664.39" width="1475.28" fill="#ffffff" height="829.44" y="-485.72" fill-opacity="1"/></g></g></g></g></g></g><g clip-path="url(#0cb05e9743)"><g clip-path="url(#02d39fe838)"><g transform="matrix(1, 0, 0, 1, 455, 359)"><g clip-path="url(#79ffdfe83b)"><g clip-path="url(#ec5230bce3)"><g clip-path="url(#5ba90e903e)"><rect x="-680.39" width="1475.28" fill="#ffffff" height="829.44" y="-485.72" fill-opacity="1"/></g></g></g></g></g></g><g clip-path="url(#e84343e325)"><g transform="matrix(1, 0, 0, 1, 478, 359)"><g clip-path="url(#251936a13b)"><g clip-path="url(#14d88d700e)"><rect x="-703.39" width="1475.28" fill="#ffffff" height="829.44" y="-485.72" fill-opacity="1"/></g></g></g></g><g clip-path="url(#b1c09f44b3)"><g transform="matrix(1, 0, 0, 1, 495, 359)"><g clip-path="url(#639fd36e8a)"><g clip-path="url(#52c5455e3d)"><rect x="-720.39" width="1475.28" fill="#ffffff" height="829.44" y="-485.72" fill-opacity="1"/></g></g></g></g><g clip-path="url(#d194a72db1)"><g transform="matrix(1, 0, 0, 1, 511, 359)"><g clip-path="url(#10f895e66f)"><g clip-path="url(#06dc4e3324)"><rect x="-736.39" width="1475.28" fill="#ffffff" height="829.44" y="-485.72" fill-opacity="1"/></g></g></g></g><g clip-path="url(#bbe29a09e6)"><g transform="matrix(1, 0, 0, 1, 528, 359)"><g clip-path="url(#43f788bfa2)"><g clip-path="url(#bb866695b8)"><rect x="-753.39" width="1475.28" fill="#ffffff" height="829.44" y="-485.72" fill-opacity="1"/></g></g></g></g><g clip-path="url(#6c26ab2fd0)"><g transform="matrix(1, 0, 0, 1, 545, 359)"><g clip-path="url(#5d8e0448fb)"><g clip-path="url(#a35de871b4)"><rect x="-770.39" width="1475.28" fill="#ffffff" height="829.44" y="-485.72" fill-opacity="1"/></g></g></g></g><g clip-path="url(#3ed519221c)"><g clip-path="url(#5014735cc6)"><g transform="matrix(1, 0, 0, 1, 561, 359)"><g clip-path="url(#626ca481fe)"><g clip-path="url(#a507d0901d)"><g clip-path="url(#a7d03fadb0)"><rect x="-786.39" width="1475.28" fill="#ffffff" height="829.44" y="-485.72" fill-opacity="1"/></g></g></g></g></g></g><g clip-path="url(#61f3948821)"><g clip-path="url(#399ead6fd7)"><g transform="matrix(1, 0, 0, 1, 577, 359)"><g clip-path="url(#aa225a3cf1)"><g clip-path="url(#134fbfe900)"><g clip-path="url(#b232d684fb)"><rect x="-802.39" width="1475.28" fill="#ffffff" height="829.44" y="-485.72" fill-opacity="1"/></g></g></g></g></g></g><g clip-path="url(#c9e043506d)"><g transform="matrix(1, 0, 0, 1, 632, 278)"><g clip-path="url(#80779fa0a3)"><g clip-path="url(#a5414417c2)"><rect x="-857.39" width="1475.28" fill="#37b34a" height="829.44" y="-404.72" fill-opacity="1"/></g></g></g></g><g clip-path="url(#e0259c3632)"><g transform="matrix(1, 0, 0, 1, 642, 287)"><g clip-path="url(#87a3023aac)"><g clip-path="url(#9e94b4a92b)"><rect x="-867.39" width="1475.28" fill="#ffffff" height="829.44" y="-413.72" fill-opacity="1"/></g></g></g></g><g clip-path="url(#a74038b51b)"><g clip-path="url(#67a284b19a)"><g transform="matrix(1, 0, 0, 1, 632, 186)"><g clip-path="url(#0433be38b9)"><g clip-path="url(#03c6c6b54c)"><g clip-path="url(#e028d05338)"><rect x="-857.39" width="1475.28" fill="#ec1c24" height="829.44" y="-312.72" fill-opacity="1"/></g></g></g></g></g></g><g clip-path="url(#1ce5674b7c)"><g clip-path="url(#a7623620f8)"><g transform="matrix(1, 0, 0, 1, 643, 196)"><g clip-path="url(#de64a9898a)"><g clip-path="url(#76663e0b14)"><g clip-path="url(#833b3af431)"><rect x="-868.39" width="1475.28" fill="#ffffff" height="829.44" y="-322.72" fill-opacity="1"/></g></g></g></g></g></g><g clip-path="url(#d309c0b8a7)"><g transform="matrix(1, 0, 0, 1, 717, 187)"><g clip-path="url(#baddd56b72)"><g clip-path="url(#24fa0d7e6f)"><path fill="#ec1c24" d="M 0.570312 0.179688 L 39.695312 0.179688 L 39.695312 55.351562 L 0.570312 55.351562 Z M 0.570312 0.179688 " fill-opacity="1" fill-rule="nonzero"/></g></g></g></g><g clip-path="url(#87fbdc1787)"><g clip-path="url(#c44e545a3e)"><g transform="matrix(1, 0, 0, 1, 717, 278)"><g clip-path="url(#16c14f346b)"><g clip-path="url(#f2352bc43b)"><g clip-path="url(#72a6d22f5c)"><rect x="-942.39" width="1475.28" fill="#37b34a" height="829.44" y="-404.72" fill-opacity="1"/></g></g></g></g></g></g><g clip-path="url(#32e72c1fb7)"><g transform="matrix(1, 0, 0, 1, 728, 287)"><g clip-path="url(#9a7097cd86)"><g clip-path="url(#0cb42f3857)"><rect x="-953.39" width="1475.28" fill="#ffffff" height="829.44" y="-413.72" fill-opacity="1"/></g></g></g></g><g clip-path="url(#c5daae4c86)"><g clip-path="url(#acede0e96e)"><g transform="matrix(1, 0, 0, 1, 801, 186)"><g clip-path="url(#33ba044cd9)"><g clip-path="url(#dd31d736d1)"><g clip-path="url(#2b093ed442)"><path fill="#ec1c24" d="M 0.453125 0.257812 L 40.464844 0.257812 L 40.464844 56.210938 L 0.453125 56.210938 Z M 0.453125 0.257812 " fill-opacity="1" fill-rule="nonzero"/></g></g></g></g></g></g><g clip-path="url(#25d9e0ee0a)"><g transform="matrix(1, 0, 0, 1, 803, 278)"><g clip-path="url(#2d604f8820)"><g clip-path="url(#bb9846baac)"><path fill="#37b34a" d="M 0.527344 0.433594 L 38.464844 0.433594 L 38.464844 56.15625 L 0.527344 56.15625 Z M 0.527344 0.433594 " fill-opacity="1" fill-rule="nonzero"/></g></g></g></g><g clip-path="url(#27abacbe48)"><g clip-path="url(#8d498f2d56)"><g transform="matrix(1, 0, 0, 1, 885, 186)"><g clip-path="url(#245525abd5)"><g clip-path="url(#b570961033)"><g clip-path="url(#c3d64a5e63)"><path fill="#ec1c24" d="M 0.0351562 0.257812 L 40.046875 0.257812 L 40.046875 56.214844 L 0.0351562 56.214844 Z M 0.0351562 0.257812 " fill-opacity="1" fill-rule="nonzero"/></g></g></g></g></g></g></svg>